PathFileType	4	(X/Y/Z)	KinectSkeleton.trc																																																	
DataRate	CameraRate	NumFrames	NumMarkers	Units	OrigDataRate	OrigDataStartFrame	OrigNumFrames																																													
60	60	11	17	mm	60	246	300																																													
Frame#	Time	Neck			ShoulderMid			R.Shoulder			L.Shoulder			R.Elbow			L.Elbow			R.Wrist			L.Wrist			HipCenter			R.Hip			L.Hip			R.Knee			L.Knee			R.Ankle			L.Ankle			R.Foot			L.Foot		
		X1	Y1	Z1	X2	Y2	Z2	X3	Y3	Z3	X4	Y4	Z4	X5	Y5	Z5	X6	Y6	Z6	X7	Y7	Z7	X8	Y8	Z8	X9	Y9	Z9	X10	Y10	Z10	X11	Y11	Z11	X12	Y12	Z12	X13	Y13	Z13	X14	Y14	Z14	X15	Y15	Z15	X16	Y16	Z16	X17	Y17	Z17
																																																				
246	13.055	-991.696	1040.615	184.677	-991.696	1040.615	184.677	-982.743	969.489	351.805	-993.302	946.625	15.564	-1067.181	704.429	434.489	-1064.429	673.301	-21.305	-983.221	477.416	438.861	-973.074	455.431	15.224	-994.337	488.588	231.524	-992.398	497.313	315.798	-996.487	478.913	138.068	-1002.203	89.277	373.255	-1034.851	68.151	130.363	-1075.893	-299.041	423.963	-1101.427	-320.527	129.651	-955.94	-428.876	441.697	-966.652	-457.491	110.673
247	13.102	-991.171	1040.159	187.058	-991.171	1040.159	187.058	-982.365	968.686	353.933	-992.861	946.81	17.699	-1067.277	703.905	436.566	-1064.272	673.828	-20.152	-983.622	476.894	440.798	-973.358	455.741	15.463	-993.982	488.279	232.552	-992.044	496.841	316.804	-996.131	478.784	139.12	-1002.125	88.932	373.779	-1034.216	68.19	131.01	-1076.091	-299.241	423.776	-1099.8	-320.474	129.609	-954.04	-426.966	441.716	-955.777	-447.785	112.315
248	13.146	-985.482	1038.47	199.497	-985.482	1038.47	199.497	-975.738	966.942	366.044	-989.178	949.83	29.422	-1062.517	703.817	448.743	-1063.282	679.136	-12.554	-978.165	477.858	449.011	-970.12	462.838	22.99	-991.779	488.378	244.808	-988.84	496.031	328.844	-995.038	479.891	151.616	-1008.954	89.098	380.252	-1032.215	70.792	135.436	-1078.088	-299.303	424.874	-1096.833	-316.648	126.784	-960.261	-430.709	438.196	-967.015	-456.259	100.99
249	13.193	-984.175	1040.776	202.864	-984.175	1040.776	202.864	-972.954	967.409	369.364	-990.032	951.704	32.322	-1060.376	703.921	453.524	-1060.814	679.223	-10.097	-978.173	476.337	452.151	-966.044	462.266	22.262	-990.009	488.848	248.25	-986.561	496.546	332.54	-993.832	480.311	154.777	-1010.365	88.17	381.618	-1032.501	70.033	137.791	-1075.933	-302.349	424.664	-1099.364	-318.304	128.043	-957.014	-433.635	437.136	-970.349	-459.63	102.873
250	13.237	-981.639	1039.654	209.765	-981.639	1039.654	209.765	-971.113	966.756	375.826	-989.048	953.002	38.541	-1055.439	703.123	460.728	-1061.637	681.693	-4.59	-976.257	475.024	455.73	-968.905	464.108	25.94	-991.172	488.767	253.114	-988.752	496.535	337.266	-993.857	480.154	159.793	-1009.849	88.586	384.319	-1032.569	70.792	140.563	-1078.875	-300.852	424.43	-1099.474	-316.678	128.191	-963.413	-434.549	438.695	-972.68	-459.93	105.65
251	13.285	-982.819	1042.625	217.388	-982.819	1042.625	217.388	-971.371	966.419	382.344	-987.527	957.016	45.135	-1051.567	700.85	466.444	-1060.707	685.739	0.493	-972.294	472.49	460.332	-969.394	467.261	31.254	-989.884	490.68	255.769	-986.687	497.852	340.054	-993.429	482.726	162.301	-1009.599	89.312	385.588	-1032.344	72.9	142.36	-1077.88	-300.934	424.001	-1100.389	-314.83	128.801	-959.635	-432.604	437.015	-971.883	-456.91	106.487
252	13.333	-981.934	1044.331	221.197	-981.934	1044.331	221.197	-971.631	965.945	385.655	-987.511	956.104	49.445	-1055.254	700.5	468.205	-1059.94	684.614	2.382	-974.039	472.501	460.783	-969.24	465.484	32.934	-988.774	491.338	256.406	-984.945	498.016	340.824	-993.021	483.931	162.789	-1008.974	88.878	385.652	-1032.839	73.609	142.846	-1080.017	-301.429	424.261	-1100.954	-314.694	129.872	-961.417	-433.259	435.747	-971.095	-455.542	105.344
253	13.394	-981.347	1045.349	228.017	-981.347	1045.349	228.017	-970.923	964.392	391.218	-985.834	957.921	55.587	-1054.081	697.658	469.816	-1058.537	687.076	5.606	-975.081	468.977	460.923	-969.121	467.204	34.237	-988.95	492.332	259.173	-984.746	498.813	343.575	-993.612	485.144	165.574	-1007.707	89.633	387.95	-1033.291	74.922	144.749	-1077.592	-300.82	426.506	-1101.414	-313.281	130.876	-956.279	-430.2	437.024	-969.127	-451.688	105.684
254	13.471	-981.511	1045.753	230.239	-981.511	1045.753	230.239	-971.023	964.174	393.35	-984.156	957.081	58.277	-1052.325	696.959	472.505	-1060.901	687.247	8.49	-972.51	468.532	462.841	-970.669	467.751	37.902	-988.285	492.497	260.842	-984.818	498.64	345.323	-992.129	485.684	167.157	-1009.048	89.288	388.313	-1032.949	75.519	145.5	-1078.196	-301.473	426.04	-1102.58	-312.467	130.462	-954.957	-429.118	436.061	-969.385	-450.42	107.306
255	13.518	-981.536	1045.856	230.306	-981.536	1045.856	230.306	-970.982	964.255	393.474	-984.129	957.147	58.282	-1051.989	696.859	472.705	-1060.782	687.18	8.483	-971.809	468.469	462.976	-970.431	467.643	37.927	-988.104	492.395	260.926	-984.649	498.544	345.437	-991.935	485.576	167.206	-1008.203	89.004	388.44	-1031.853	75.166	145.646	-1075.579	-302.187	426.445	-1100.169	-313.191	130.412	-951.713	-429.346	436.024	-966.346	-450.779	108.137
256	13.562	-979.779	1045.609	229.521	-979.779	1045.609	229.521	-970.538	964.182	392.712	-982.943	957.492	57.356	-1049.674	696.814	473.417	-1061.25	687.952	8.593	-969.822	468.398	464.479	-973.401	467.469	37.631	-987.638	492.522	261.138	-984.556	499.007	345.599	-991.056	485.331	167.474	-1005.757	89.765	390.764	-1031.2	75.14	145.88	-1076.988	-300.612	428.134	-1100.581	-312.832	130.439	-955.552	-429.61	441.829	-968.255	-451.834	108.794
